<svg width="62" height="62" viewBox="0 0 62 62" fill="none" xmlns="http://www.w3.org/2000/svg">
<path d="M40.6875 46.5H21.3125V50.375H40.6875V46.5Z" fill="black"/>
<path d="M36.8125 54.25H25.1875V58.125H36.8125V54.25Z" fill="black"/>
<path d="M31 3.875C25.8614 3.875 20.9333 5.91629 17.2998 9.54981C13.6662 13.1833 11.625 18.1114 11.625 23.25C11.4939 26.0658 12.0333 28.8726 13.1988 31.4392C14.3642 34.0059 16.1224 36.2592 18.3287 38.0138C20.2662 39.8156 21.3125 40.8425 21.3125 42.625H25.1875C25.1875 39.06 23.0368 37.0644 20.9443 35.1462C19.1335 33.7595 17.6902 31.9499 16.7411 29.8759C15.7919 27.802 15.3658 25.5269 15.5 23.25C15.5 19.1391 17.133 15.1967 20.0398 12.2898C22.9466 9.38303 26.8891 7.75 31 7.75C35.1108 7.75 39.0533 9.38303 41.9601 12.2898C44.8669 15.1967 46.5 19.1391 46.5 23.25C46.6319 25.5286 46.2028 27.8047 45.2502 29.8788C44.2976 31.9529 42.8506 33.7616 41.0362 35.1462C38.9631 37.0837 36.8125 39.0213 36.8125 42.625H40.6875C40.6875 40.8425 41.7143 39.8156 43.6712 37.9944C45.876 36.2428 47.6334 33.9929 48.7988 31.4295C49.9643 28.8662 50.5045 26.0628 50.375 23.25C50.375 20.7056 49.8738 18.1862 48.9001 15.8355C47.9264 13.4848 46.4993 11.3489 44.7002 9.54981C42.901 7.75067 40.7651 6.32352 38.4145 5.34983C36.0638 4.37615 33.5443 3.875 31 3.875Z" fill="black"/>
</svg>
