<svg width="61" height="61" viewBox="0 0 61 61" fill="none" xmlns="http://www.w3.org/2000/svg">
<path d="M38.1726 38.6254H37.1718C37.1718 44.5825 42.0089 49.3481 47.8945 49.3481C53.78 49.3481 58.6171 44.511 58.6171 38.6254H57.7593H57.6164L50.4203 14.7497H50.6347V11.6758H31.9773L32.025 4.24146H31.9296H31.8105H28.4507H28.3316H28.2601L28.3078 11.6758H9.60269V14.7497H9.81714L2.64488 38.6254H2.50191H1.62027C1.62027 44.5586 6.45738 49.3481 12.3429 49.3481C18.2285 49.3481 23.0656 44.5586 23.0656 38.6254H22.0648H21.8265L14.6543 14.7497L28.2363 14.845V52.0883L28.2125 52.0168V52.1598H12.2953V58.6172H47.9183V52.136H32.0011V51.993L31.9773 52.0645V14.845L45.5593 14.7497L38.3632 38.6254H38.1726ZM19.4675 38.6254H5.21832L12.2238 15.0118L12.2953 14.9879L19.4675 38.6254ZM47.9183 14.9641L47.9898 14.9879L54.9953 38.6016H40.746L47.9183 14.9641Z" fill="black"/>
</svg>
