<svg width="55" height="55" viewBox="0 0 55 55" fill="none" xmlns="http://www.w3.org/2000/svg">
<g clip-path="url(#clip0_44_387)">
<path d="M30.0471 1.15134C29.3897 0.44966 28.4613 0.0473633 27.5 0.0473633C26.5387 0.0473633 25.6102 0.449768 24.9529 1.15134C24.2955 1.85292 23.9543 2.80554 24.0169 3.76504L24.1925 6.45554C24.1925 6.45565 24.1925 6.45565 24.1925 6.45565C24.262 7.51946 24.8236 8.49249 25.6949 9.05861C26.2431 9.41493 26.8717 9.59293 27.5001 9.59293C28.1285 9.59293 28.7572 9.41482 29.3052 9.05871C30.1764 8.4926 30.7381 7.51957 30.8075 6.45565L30.9831 3.76504C31.0457 2.80565 30.7045 1.85303 30.0471 1.15134ZM28.7967 3.62249L28.6212 6.31289C28.5966 6.69048 28.4061 7.02993 28.1117 7.22125C27.74 7.46263 27.2601 7.46242 26.8886 7.22125C26.5942 7.02993 26.4039 6.69026 26.379 6.31289L26.2035 3.62249C26.18 3.26016 26.3036 2.91458 26.552 2.64957C26.8002 2.38466 27.1369 2.23867 27.5 2.23867C27.8631 2.23867 28.1996 2.38466 28.448 2.64957C28.6966 2.91458 28.8202 3.26016 28.7967 3.62249Z" fill="black"/>
<path d="M36.1657 16.0276L35.8613 14.3471C35.4611 12.1381 33.711 10.3751 31.5063 9.9599C31.1734 9.89728 30.8332 9.86548 30.4947 9.86548H29.578C29.2874 9.86548 29.0087 9.98096 28.8032 10.1863C28.4552 10.5344 27.9924 10.7261 27.5 10.7261C27.0076 10.7261 26.5448 10.5344 26.1967 10.1863C25.9912 9.98096 25.7126 9.86548 25.422 9.86548H24.5053C24.1669 9.86548 23.8266 9.89728 23.4937 9.9599C21.289 10.3749 19.5389 12.138 19.1387 14.3471L18.8343 16.0276C18.7764 16.347 18.8633 16.6759 19.0714 16.9251C19.2797 17.1743 19.5877 17.3185 19.9124 17.3185H35.0877C35.4124 17.3185 35.7204 17.1744 35.9285 16.9251C36.1365 16.6759 36.2235 16.3471 36.1657 16.0276ZM21.2245 15.1271L21.2949 14.7376C21.5344 13.4161 22.5811 12.3614 23.8994 12.1132C24.0988 12.0756 24.3027 12.0566 24.5055 12.0566H25.0084C25.7162 12.6145 26.5849 12.9174 27.5001 12.9174C28.4152 12.9174 29.284 12.6146 29.9918 12.0566H30.4947C30.6974 12.0566 30.9014 12.0756 31.1008 12.1132C32.4192 12.3614 33.4657 13.4161 33.7053 14.7376L33.7758 15.1271H21.2245Z" fill="black"/>
<path d="M30.0471 38.7854C29.3897 38.0837 28.4613 37.6814 27.5 37.6814C26.5387 37.6814 25.6102 38.0838 24.9529 38.7854C24.2955 39.4871 23.9543 40.4397 24.0169 41.3991L24.1925 44.0897C24.262 45.1536 24.8237 46.1266 25.6948 46.6926C26.2433 47.049 26.8716 47.227 27.5001 47.227C28.1284 47.227 28.7572 47.0489 29.3052 46.6926C30.1763 46.1266 30.7381 45.1535 30.8075 44.0896L30.9831 41.399C31.0457 40.4397 30.7045 39.4871 30.0471 38.7854ZM28.7967 41.2563L28.6212 43.9468C28.5966 44.3243 28.4061 44.6638 28.1115 44.8551C27.74 45.0964 27.2601 45.0964 26.8886 44.8551C26.5942 44.6638 26.4039 44.3242 26.379 43.9468L26.2035 41.2564C26.18 40.894 26.3036 40.5484 26.552 40.2835C26.8001 40.0186 27.1369 39.8726 27.5 39.8726C27.8631 39.8726 28.1997 40.0186 28.448 40.2835C28.6966 40.5484 28.8202 40.894 28.7967 41.2563Z" fill="black"/>
<path d="M36.1656 53.6616L35.8612 51.9812C35.461 49.7721 33.7108 48.0091 31.5062 47.5939C31.1736 47.5313 30.8333 47.4995 30.4946 47.4995H29.5779C29.2873 47.4995 29.0086 47.615 28.8031 47.8204C28.0845 48.5391 26.9154 48.539 26.1967 47.8204C25.9912 47.615 25.7126 47.4995 25.422 47.4995H24.5053C24.1671 47.4995 23.8268 47.5313 23.4937 47.5939C21.289 48.0091 19.5389 49.7721 19.1387 51.9813L18.8343 53.6617C18.7764 53.9812 18.8633 54.31 19.0714 54.5592C19.2797 54.8084 19.5877 54.9525 19.9124 54.9525H35.0877C35.4124 54.9525 35.7204 54.8084 35.9284 54.559C36.1364 54.3099 36.2233 53.9812 36.1656 53.6616ZM21.2245 52.7613L21.2948 52.3719C21.5344 51.0504 22.581 49.9957 23.899 49.7474C24.0986 49.7098 24.3026 49.6908 24.5053 49.6908H25.0089C26.4655 50.8359 28.5348 50.8359 29.9912 49.6908H30.4948C30.6976 49.6908 30.9016 49.7098 31.1009 49.7473C32.4193 49.9956 33.4658 51.0503 33.7054 52.3718L33.7759 52.7613H21.2245Z" fill="black"/>
<path d="M11.2303 19.9686C10.5729 19.2669 9.64455 18.8645 8.68311 18.8645C7.72168 18.8645 6.79312 19.2669 6.1358 19.9686C5.47849 20.6702 5.13742 21.6228 5.20005 22.5821L5.37557 25.2726C5.44497 26.3364 6.00657 27.3095 6.87788 27.8756C7.42627 28.2319 8.0548 28.41 8.68322 28.41C9.31164 28.41 9.94028 28.2319 10.4883 27.8757C11.3597 27.3096 11.9213 26.3365 11.9905 25.2728L12.1661 22.5822C12.2286 21.6229 11.8875 20.6701 11.2303 19.9686ZM9.9797 22.4394L9.80417 25.13C9.77968 25.5075 9.58922 25.8469 9.29467 26.0382C8.9231 26.2796 8.44324 26.2796 8.07177 26.0382C7.77722 25.8468 7.58687 25.5073 7.56216 25.13L7.38663 22.4394C7.363 22.0771 7.48675 21.7315 7.735 21.4666C7.98326 21.2016 8.32003 21.0556 8.68311 21.0556C9.0462 21.0556 9.38286 21.2017 9.63112 21.4666C9.87937 21.7315 10.0033 22.0771 9.9797 22.4394Z" fill="black"/>
<path d="M17.3486 34.8444L17.0442 33.164C16.644 30.955 14.8939 29.192 12.6892 28.7768C12.3565 28.7142 12.0162 28.6824 11.6775 28.6824H10.7608C10.4703 28.6824 10.1918 28.7979 9.98615 29.0032C9.2675 29.7219 8.09842 29.722 7.37976 29.0032C7.17426 28.7979 6.89561 28.6824 6.60503 28.6824H5.68818C5.35001 28.6824 5.00959 28.7142 4.67669 28.7768C2.47206 29.192 0.721928 30.955 0.321672 33.164L0.0173438 34.8444C-0.0405569 35.1639 0.0463478 35.4927 0.254425 35.742C0.462717 35.9912 0.770698 36.1352 1.09544 36.1352H16.2707C16.5954 36.1352 16.9034 35.9912 17.1114 35.742C17.3196 35.4927 17.4065 35.1641 17.3486 34.8444ZM2.4076 33.9441L2.47807 33.5546C2.71762 32.2332 3.76424 31.1784 5.08253 30.9302C5.28191 30.8926 5.48579 30.8736 5.6885 30.8736H6.19167C6.89947 31.4315 7.7682 31.7342 8.68333 31.7342C9.59846 31.7342 10.4672 31.4315 11.175 30.8736H11.6779C11.8807 30.8736 12.0845 30.8926 12.2839 30.9302C13.6023 31.1784 14.6488 32.2332 14.8884 33.5546L14.959 33.9441H2.4076Z" fill="black"/>
<path d="M48.864 19.9685C48.2065 19.2668 47.2782 18.8645 46.3169 18.8645C45.3554 18.8645 44.427 19.2669 43.7697 19.9686C43.1124 20.6702 42.7713 21.6229 42.8339 22.5822L43.0094 25.2727C43.0788 26.3365 43.6403 27.3096 44.5116 27.8757C45.0601 28.2321 45.6884 28.4101 46.317 28.4101C46.9453 28.4101 47.574 28.232 48.1221 27.8757C48.9934 27.3096 49.5551 26.3365 49.6244 25.2727L49.7999 22.5821C49.8626 21.6227 49.5214 20.6701 48.864 19.9685ZM47.6136 22.4394L47.438 25.13C47.4135 25.5074 47.223 25.8469 46.9284 26.0382C46.5572 26.2794 46.0772 26.2796 45.7055 26.0382C45.4111 25.8469 45.2207 25.5074 45.196 25.13L45.0205 22.4394C44.9969 22.0771 45.1207 21.7315 45.3689 21.4666C45.617 21.2017 45.9538 21.0557 46.3169 21.0557C46.6801 21.0557 47.0167 21.2017 47.2649 21.4666C47.5134 21.7315 47.6371 22.0771 47.6136 22.4394Z" fill="black"/>
<path d="M54.9824 34.8444L54.6781 33.164C54.2778 30.955 52.5277 29.192 50.3231 28.7768C49.9902 28.7142 49.65 28.6824 49.3115 28.6824H48.3946C48.1042 28.6824 47.8256 28.7979 47.62 29.0032C46.9013 29.7219 45.7323 29.722 45.0136 29.0032C44.8081 28.7979 44.5295 28.6824 44.2389 28.6824H43.3221C42.9836 28.6824 42.6433 28.7142 42.3106 28.7768C40.1059 29.192 38.3558 30.955 37.9555 33.164L37.6512 34.8444C37.5933 35.1639 37.6802 35.4927 37.8883 35.742C38.0966 35.9912 38.4045 36.1352 38.7293 36.1352H53.9045C54.2293 36.1352 54.5373 35.9912 54.7452 35.742C54.9534 35.4927 55.0402 35.1641 54.9824 34.8444ZM40.0413 33.9441L40.1119 33.5546C40.3514 32.2332 41.398 31.1784 42.7165 30.9302C42.9158 30.8926 43.1195 30.8736 43.3224 30.8736H43.8253C44.5331 31.4315 45.4018 31.7342 46.317 31.7342C47.2321 31.7342 48.1008 31.4315 48.8086 30.8736H49.3117C49.5143 30.8736 49.7183 30.8926 49.9177 30.9302C51.2361 31.1784 52.2826 32.2332 52.5221 33.5546L52.5927 33.9441H40.0413Z" fill="black"/>
<path d="M21.8093 7.1144C21.6154 6.5413 20.9936 6.23386 20.4202 6.42765C16.0807 7.8958 12.2153 10.7652 9.53616 14.5069C9.18403 14.9989 9.29725 15.6834 9.78924 16.0356C9.9825 16.174 10.2054 16.2405 10.4262 16.2405C10.7675 16.2405 11.1041 16.0813 11.3179 15.7825C13.7321 12.4108 17.2141 9.82564 21.1225 8.50327C21.6958 8.30937 22.0033 7.6875 21.8093 7.1144Z" fill="black"/>
<path d="M45.4971 14.5069C43.6111 11.8726 41.1224 9.64545 38.2995 8.06613C37.7717 7.77082 37.1039 7.95924 36.8085 8.48733C36.513 9.01542 36.7017 9.68294 37.2297 9.97846C39.773 11.4016 42.0158 13.4087 43.7155 15.7825C43.9294 16.0813 44.2659 16.2404 44.6074 16.2404C44.828 16.2404 45.0509 16.1739 45.244 16.0355C45.7363 15.6832 45.8494 14.9987 45.4971 14.5069Z" fill="black"/>
<path d="M35.1783 6.62739C34.9921 6.55875 34.8019 6.49139 34.6131 6.42759C34.0398 6.23337 33.4181 6.54113 33.224 7.11423C33.0302 7.68733 33.3377 8.3092 33.9108 8.5032C34.0807 8.56067 34.2519 8.62126 34.4196 8.68324C34.5449 8.72943 34.6729 8.75135 34.7989 8.75135C35.2446 8.75135 35.6636 8.47731 35.8267 8.03473C36.0363 7.46701 35.7461 6.83697 35.1783 6.62739Z" fill="black"/>
<path d="M21.1226 45.3543C17.2142 44.0321 13.7322 41.4469 11.318 38.075C10.9656 37.5831 10.2812 37.4698 9.78935 37.822C9.29725 38.1744 9.18403 38.8588 9.53626 39.3508C12.2154 43.0926 16.0809 45.9619 20.4203 47.43C20.5368 47.4693 20.6551 47.4881 20.7716 47.4881C21.2285 47.4881 21.6548 47.2 21.8094 46.7433C22.0033 46.1702 21.6958 45.5483 21.1226 45.3543Z" fill="black"/>
<path d="M45.2441 37.8223C44.7522 37.47 44.0677 37.5835 43.7155 38.0752C41.3013 41.4471 37.8193 44.0322 33.9109 45.3544C33.3377 45.5483 33.0302 46.1702 33.2241 46.7434C33.3786 47.2001 33.805 47.4881 34.2619 47.4881C34.3783 47.4881 34.4967 47.4694 34.6131 47.4301C39.0155 45.9407 42.7791 43.147 45.4972 39.3509C45.8494 38.8589 45.7362 38.1745 45.2441 37.8223Z" fill="black"/>
</g>
<defs>
<clipPath id="clip0_44_387">
<rect width="55" height="55" fill="white"/>
</clipPath>
</defs>
</svg>
