<svg width="57" height="57" viewBox="0 0 57 57" fill="none" xmlns="http://www.w3.org/2000/svg">
<g clip-path="url(#clip0_44_442)">
<path d="M45.8805 21.5008C45.9813 20.7417 46.0384 19.969 46.0384 19.1827C46.0384 9.51218 38.1705 1.64429 28.5 1.64429C18.8294 1.64429 10.9616 9.51218 10.9616 19.1827C10.9616 19.969 11.0188 20.7417 11.1195 21.5008C4.61574 24.0687 -3.43323e-05 30.4121 -3.43323e-05 37.8172C-3.43323e-05 47.4878 7.86786 55.3557 17.5384 55.3557C21.6836 55.3557 25.4949 53.9069 28.5 51.4936C31.5052 53.9069 35.3164 55.3557 39.4616 55.3557C49.1321 55.3557 57 47.4878 57 37.8172C57 30.4121 52.3841 24.0687 45.8805 21.5008ZM28.5 3.83656C36.962 3.83656 43.8461 10.7208 43.8461 19.1827C43.8461 19.7335 43.8156 20.2773 43.7586 20.8133C42.3829 20.4654 40.9439 20.2789 39.4616 20.2789C35.3165 20.2789 31.5052 21.7277 28.5 24.141C25.4949 21.7277 21.6837 20.2789 17.5384 20.2789C16.0562 20.2789 14.6171 20.4655 13.2412 20.8133C13.1843 20.2773 13.1537 19.7337 13.1537 19.1827C13.1538 10.7206 20.0379 3.83656 28.5 3.83656ZM28.5 27.0918C30.3591 28.9915 31.7316 31.369 32.409 34.0226C31.1604 34.3518 29.8506 34.5288 28.5 34.5288C27.1494 34.5288 25.8396 34.3518 24.591 34.0226C25.2686 31.369 26.6408 28.9915 28.5 27.0918ZM22.5125 33.312C18.1522 31.4573 14.8202 27.6411 13.6295 22.9773C14.8781 22.6481 16.188 22.4711 17.5385 22.4711C21.0424 22.4711 24.2735 23.654 26.8597 25.6378C24.8124 27.7553 23.2917 30.3832 22.5125 33.312ZM30.1405 25.6378C32.7267 23.654 35.9578 22.4711 39.4616 22.4711C40.8122 22.4711 42.122 22.6481 43.3706 22.9773C42.1799 27.6411 38.8479 31.4573 34.4876 33.312C33.7083 30.3832 32.1874 27.7553 30.1405 25.6378ZM17.5384 53.1634C9.07632 53.1634 2.19224 46.2792 2.19224 37.8172C2.19224 31.4783 6.05555 26.0255 11.5509 23.6879C12.9882 29.0897 16.9451 33.4713 22.081 35.4992C21.9803 36.2583 21.923 37.031 21.923 37.8172C21.923 42.5452 23.807 46.8393 26.8595 49.9965C24.2735 51.9805 21.0423 53.1634 17.5384 53.1634ZM24.1153 37.8172C24.1153 37.2664 24.1459 36.7227 24.2028 36.1866C25.5786 36.5344 27.0177 36.721 28.5 36.721C29.9823 36.721 31.4213 36.5343 32.797 36.1866C32.854 36.7227 32.8845 37.2663 32.8845 37.8172C32.8845 41.9883 31.2098 45.7739 28.4999 48.5427C25.7902 45.7739 24.1153 41.9884 24.1153 37.8172ZM39.4616 53.1634C35.9578 53.1634 32.7267 51.9805 30.1405 49.9965C33.1929 46.8392 35.0769 42.5451 35.0769 37.8172C35.0769 37.031 35.0198 36.2583 34.919 35.4992C40.0549 33.4713 44.012 29.0897 45.4492 23.6879C50.9446 26.0254 54.8078 31.4783 54.8078 37.8172C54.8077 46.2793 47.9235 53.1634 39.4616 53.1634Z" fill="black"/>
</g>
<defs>
<clipPath id="clip0_44_442">
<rect width="57" height="57" fill="white"/>
</clipPath>
</defs>
</svg>
