<svg width="24" height="25" viewBox="0 0 24 25" fill="none" xmlns="http://www.w3.org/2000/svg">
<path d="M11.8627 2.72169C15.003 2.72169 15.3955 2.72169 16.6713 2.81982C19.9097 2.91795 21.3817 4.48809 21.4798 7.62837C21.5779 8.90411 21.5779 9.19851 21.5779 12.3388C21.5779 15.4791 21.5779 15.8716 21.4798 17.0492C21.3817 20.1895 19.8115 21.7596 16.6713 21.8578C15.3955 21.9559 15.1011 21.9559 11.8627 21.9559C8.72243 21.9559 8.3299 21.9559 7.1523 21.8578C3.91388 21.7596 2.44188 20.1895 2.34374 17.0492C2.24561 15.7735 2.24561 15.4791 2.24561 12.3388C2.24561 9.19851 2.24561 8.80597 2.34374 7.62837C2.44188 4.48809 4.01202 2.91795 7.1523 2.81982C8.3299 2.72169 8.72243 2.72169 11.8627 2.72169ZM11.8627 0.562744C8.6243 0.562744 8.23177 0.562744 7.05416 0.660878C2.73628 0.857145 0.381071 3.21235 0.184804 7.53024C0.0866699 8.70784 0.0866699 9.10037 0.0866699 12.3388C0.0866699 15.5772 0.0866699 15.9697 0.184804 17.1473C0.381071 21.4652 2.73628 23.8204 7.05416 24.0167C8.23177 24.1148 8.6243 24.1148 11.8627 24.1148C15.1011 24.1148 15.4937 24.1148 16.6713 24.0167C20.9891 23.8204 23.3444 21.4652 23.5406 17.1473C23.6388 15.9697 23.6388 15.5772 23.6388 12.3388C23.6388 9.10037 23.6388 8.70784 23.5406 7.53024C23.3444 3.21235 20.9891 0.857145 16.6713 0.660878C15.4937 0.562744 15.1011 0.562744 11.8627 0.562744ZM11.8627 6.2545C8.52617 6.2545 5.77842 9.00224 5.77842 12.3388C5.77842 15.6753 8.52617 18.4231 11.8627 18.4231C15.1993 18.4231 17.947 15.6753 17.947 12.3388C17.947 9.00224 15.1993 6.2545 11.8627 6.2545ZM11.8627 16.2641C9.70377 16.2641 7.93736 14.4977 7.93736 12.3388C7.93736 10.1798 9.70377 8.41344 11.8627 8.41344C14.0217 8.41344 15.7881 10.1798 15.7881 12.3388C15.7881 14.4977 14.0217 16.2641 11.8627 16.2641ZM18.1433 4.68436C17.3582 4.68436 16.7694 5.27316 16.7694 6.05823C16.7694 6.8433 17.3582 7.4321 18.1433 7.4321C18.9283 7.4321 19.5171 6.8433 19.5171 6.05823C19.5171 5.27316 18.9283 4.68436 18.1433 4.68436Z" fill="white"/>
</svg>
