<svg width="24" height="28" viewBox="0 0 24 28" fill="none" xmlns="http://www.w3.org/2000/svg">
<g clip-path="url(#clip0_14_891)">
<path d="M9.02219 25.3056C9.57365 25.3056 10.0207 24.7957 10.0207 24.1667C10.0207 23.5377 9.57365 23.0278 9.02219 23.0278C8.47073 23.0278 8.02368 23.5377 8.02368 24.1667C8.02368 24.7957 8.47073 25.3056 9.02219 25.3056Z" stroke="#3D3D3D" stroke-width="2" stroke-linecap="round" stroke-linejoin="round"/>
<path d="M20.0058 25.3056C20.5573 25.3056 21.0043 24.7957 21.0043 24.1667C21.0043 23.5377 20.5573 23.0278 20.0058 23.0278C19.4544 23.0278 19.0073 23.5377 19.0073 24.1667C19.0073 24.7957 19.4544 25.3056 20.0058 25.3056Z" stroke="#3D3D3D" stroke-width="2" stroke-linecap="round" stroke-linejoin="round"/>
<path d="M1.03418 1.38892H5.02821L7.70421 16.6386C7.79552 17.163 8.04561 17.634 8.4107 17.9692C8.77579 18.3044 9.23262 18.4825 9.70123 18.4723H19.4067C19.8753 18.4825 20.3322 18.3044 20.6972 17.9692C21.0623 17.634 21.3124 17.163 21.4037 16.6386L23.0013 7.08336H6.02672" stroke="#3D3D3D" stroke-width="2" stroke-linecap="round" stroke-linejoin="round"/>
</g>
<defs>
<clipPath id="clip0_14_891">
<rect width="23.9642" height="27.3333" fill="white" transform="translate(0.0356445 0.25)"/>
</clipPath>
</defs>
</svg>
