<svg width="26" height="22" viewBox="0 0 26 22" fill="none" xmlns="http://www.w3.org/2000/svg">
<path d="M8.19217 21.9934C17.9266 21.9934 23.2501 13.7959 23.2501 6.68784C23.2501 6.45494 23.2454 6.22324 23.2348 5.99242C24.2681 5.23319 25.1665 4.28548 25.875 3.20716C24.9268 3.63539 23.9064 3.92376 22.8358 4.05377C23.9284 3.38788 24.7675 2.33401 25.1632 1.07796C24.1405 1.69436 23.008 2.14226 21.8028 2.38381C20.8367 1.3383 19.4613 0.684326 17.9395 0.684326C15.0166 0.684326 12.6463 3.09355 12.6463 6.0631C12.6463 6.48536 12.693 6.89569 12.7833 7.28963C8.38522 7.06508 4.48498 4.92424 1.87505 1.6696C1.42001 2.46433 1.15802 3.38818 1.15802 4.37316C1.15802 6.23934 2.09244 7.88694 3.5133 8.85104C2.64518 8.8239 1.82957 8.58116 1.11636 8.17799C1.11518 8.20035 1.11518 8.22302 1.11518 8.24657C1.11518 10.852 2.93973 13.0271 5.36103 13.5201C4.91655 13.6432 4.4489 13.7094 3.96599 13.7094C3.62508 13.7094 3.29355 13.6748 2.97113 13.6125C3.64473 15.7495 5.59867 17.3049 7.91522 17.3488C6.10358 18.7918 3.82164 19.6515 1.34226 19.6515C0.91539 19.6515 0.494091 19.6268 0.079834 19.577C2.42191 21.1026 5.20289 21.9934 8.19217 21.9934Z" fill="white"/>
</svg>
